Land_normalized_Motion_pl04
version=1
nRows=24
nColumns=43
inDegrees=yes
endheader
time		pelvis_tilt		pelvis_list		pelvis_rotation		pelvis_tx		pelvis_ty		pelvis_tz		hip_flexion_r		hip_adduction_r		hip_rotation_r		knee_angle_r		ankle_angle_r		subtalar_angle_r		mtp_angle_r		hip_flexion_l		hip_adduction_l		hip_rotation_l		knee_angle_l		ankle_angle_l		subtalar_angle_l		mtp_angle_l		lumbar_extension		lumbar_bending		lumbar_rotation		neck_flexion		neck_lateral_bending		neck_rotation		arm_flex_r		arm_add_r		arm_rot_r		elbow_flex_r		pro_sup_r		wrist_flex_r		wrist_dev_r		hand_finger_flex_r		arm_flex_l		arm_add_l		arm_rot_l		elbow_flex_l		pro_sup_l		wrist_flex_l		wrist_dev_l		hand_finger_flex_l		
2.967500		2.731058		0.909483		97.433895		-0.035859		0.934437		0.564092		34.768020		-6.007022		-12.891962		-35.664990		-17.087356		7.180838		27.642370		34.102940		-6.213231		-5.701173		-36.968450		-17.746313		2.041960		25.850135		-25.609058		7.400741		0.645843		-25.993997		1.616881		-4.385390		-63.228776		-13.996466		-26.543200		41.440303		125.802372		-7.307066		-11.978814		-32.934678		-83.452635		-17.737720		-36.547254		60.578886		133.476329		-12.780342		-9.956248		-25.572851		
2.970328		2.919597		0.736173		97.070860		-0.035308		0.922820		0.560493		35.880620		-5.796504		-12.694307		-37.261187		-16.668034		7.385517		27.614159		35.117465		-6.670532		-5.779693		-38.524646		-17.297093		2.670429		26.698243		-25.734836		7.424688		1.028481		-24.624076		1.421681		-4.392334		-62.340025		-14.365865		-26.026070		41.190211		125.741825		-8.395336		-12.105031		-33.220214		-82.322027		-17.842128		-35.791744		60.500655		133.412637		-14.348559		-10.440162		-25.913642		
2.973157		2.851512		1.090125		97.014058		-0.035510		0.912526		0.556260		36.171746		-5.958690		-12.683405		-38.661072		-16.810112		7.435291		27.610019		35.445280		-6.745871		-5.775610		-39.885304		-17.398458		2.782552		26.842537		-26.200663		7.404202		1.040483		-24.843324		1.386768		-4.384287		-61.524878		-14.648839		-25.987803		41.249819		125.707562		-8.532131		-12.093214		-33.252563		-81.260509		-17.931179		-35.464121		60.849110		133.430655		-14.541035		-10.594350		-25.942446		
2.975985		2.837130		1.255576		96.860987		-0.035259		0.901662		0.552400		36.764314		-6.002145		-12.580473		-40.048800		-16.869217		7.749736		27.599710		36.078848		-6.932755		-5.772852		-41.312825		-17.635185		3.104820		27.170616		-26.614436		7.333668		1.119599		-24.208532		1.201067		-4.371644		-60.518465		-14.926153		-25.799524		41.218914		125.642987		-8.903225		-12.090317		-33.385542		-80.132267		-17.974509		-35.038667		61.065238		133.510538		-15.207315		-10.909425		-26.120303		
2.978813		2.922498		1.297907		96.729578		-0.034768		0.890528		0.548556		37.496886		-5.950593		-12.502670		-41.358199		-16.937590		8.106588		27.587715		36.642296		-7.201868		-5.781961		-42.197680		-17.871682		3.456998		27.535455		-26.886508		7.305576		1.215057		-23.392372		1.026822		-4.368944		-59.526130		-15.178825		-25.565629		41.260019		125.569582		-9.334474		-12.132930		-33.544928		-79.017220		-18.014884		-34.611960		61.289156		133.609880		-16.000518		-11.280836		-26.338551		
2.981641		2.827566		1.628864		96.637026		-0.035373		0.880070		0.544456		37.803294		-6.175984		-12.416000		-42.519362		-17.120434		8.252663		27.584263		37.036634		-7.194191		-5.733108		-43.491922		-17.949031		3.580452		27.645526		-27.360307		7.291886		1.268734		-23.502171		1.000901		-4.367152		-58.631261		-15.516014		-25.594390		41.361439		125.513692		-9.450151		-12.127317		-33.580504		-77.804153		-18.042688		-34.274977		61.727768		133.666658		-16.193593		-11.461298		-26.397831		
2.984470		2.704574		1.596992		96.469854		-0.035149		0.868446		0.540965		38.746987		-6.331750		-12.162372		-43.938851		-16.928521		9.328883		27.562522		37.988014		-7.229420		-5.647265		-45.000875		-17.759148		4.204609		28.217647		-27.686445		7.092181		1.287520		-22.109931		0.641526		-4.414378		-57.388302		-15.765842		-25.489003		41.164785		125.170539		-10.046413		-12.191371		-33.764200		-76.489309		-18.094007		-33.808175		61.648403		133.936903		-17.497945		-11.971295		-26.818998		
2.987298		2.581093		1.443311		96.315733		-0.035467		0.856797		0.537274		39.787445		-6.592590		-11.930591		-45.333953		-16.110886		10.369305		27.524788		38.872722		-7.172467		-5.583804		-46.245242		-16.628225		4.911772		29.228207		-27.730519		6.960083		1.310705		-21.616277		0.451060		-4.496768		-56.381986		-16.135475		-25.228165		41.072862		124.488232		-10.842083		-12.525398		-33.886528		-75.118167		-18.245285		-33.099674		61.424957		134.303544		-19.239696		-12.658762		-27.226682		
2.990126		2.475564		1.698557		96.352359		-0.035579		0.845941		0.533373		40.158319		-6.823912		-11.735470		-46.562038		-15.657521		10.660232		27.516141		39.451974		-7.162519		-5.547926		-47.714780		-15.929911		5.134173		29.575652		-28.132978		6.894685		1.249244		-21.639316		0.364248		-4.501934		-55.348876		-16.381270		-25.158324		41.170920		124.209601		-11.046008		-12.606119		-33.862694		-73.849981		-18.402007		-32.797128		61.741043		134.381544		-19.675891		-12.840737		-27.275625		
2.992955		2.504806		1.370761		96.174323		-0.035391		0.833782		0.529791		41.408736		-6.811768		-11.334395		-48.153884		-13.522930		12.114321		27.497145		40.600805		-7.324265		-5.439884		-49.356229		-12.756941		6.664931		31.056772		-27.994334		6.842437		1.294108		-20.875065		0.105979		-4.595289		-54.226815		-16.800155		-24.702722		40.985539		122.707910		-12.078238		-13.104007		-33.601072		-72.520426		-18.595161		-31.988805		61.567179		134.676641		-21.687090		-13.363059		-27.342292		
2.995783		2.353510		1.573201		96.365963		-0.035394		0.822754		0.526378		41.908050		-7.104241		-11.003792		-49.772852		-11.042152		12.493162		27.508782		41.188112		-7.089383		-5.099929		-51.055546		-9.841381		6.617212		31.468007		-28.458097		6.750698		1.079330		-20.227139		-0.001128		-4.627805		-52.960482		-16.993054		-24.610012		41.007400		122.353106		-12.323415		-13.129543		-33.516469		-71.175500		-18.757041		-31.803394		61.963722		134.685466		-22.119939		-13.445271		-27.332927		
2.998611		2.340055		1.591570		96.305918		-0.035291		0.811194		0.522857		42.623675		-7.183691		-10.780209		-51.595567		-8.312164		13.482070		27.559320		41.982515		-7.164849		-4.939732		-53.109347		-5.766902		7.367018		31.844822		-28.713989		6.699130		1.146606		-19.513404		-0.063383		-4.644365		-51.826267		-17.287323		-24.315970		41.030108		121.751029		-12.865553		-13.362692		-33.429469		-69.785614		-18.922306		-31.429528		62.213925		134.758045		-23.049691		-13.662652		-27.440829		
3.001439		2.377374		1.625159		96.255857		-0.035061		0.799730		0.519314		43.283405		-7.179187		-10.569843		-53.551302		-5.323009		13.975922		27.630407		42.759057		-7.325422		-4.804993		-55.295428		-1.691213		8.072465		32.063926		-28.963014		6.694692		1.212462		-18.948702		-0.133906		-4.668171		-50.603980		-17.595143		-24.004398		40.969686		121.098990		-13.422627		-13.556442		-33.345697		-68.373854		-19.139507		-30.995440		62.428712		134.818131		-23.978089		-13.884595		-27.537347		
3.004268		2.385824		1.771697		96.312418		-0.034863		0.788568		0.515933		43.789680		-7.212318		-10.379291		-55.621362		-2.313474		13.719901		27.687579		43.381880		-7.360749		-4.575060		-57.465694		2.228334		7.967467		32.140245		-29.365192		6.691519		1.140660		-18.302264		-0.166883		-4.703664		-49.221010		-17.871478		-23.829827		40.914417		120.734051		-13.751861		-13.597998		-33.344056		-66.957777		-19.342945		-30.651336		62.756326		134.827105		-24.521570		-14.038498		-27.626681		
3.007096		2.512502		1.843794		96.203152		-0.034423		0.777203		0.512592		44.398846		-7.048377		-10.315794		-57.775530		0.175204		13.348758		27.758694		44.079424		-7.621768		-4.451142		-59.713456		6.392194		7.929372		32.087931		-29.703076		6.729392		1.314236		-17.545886		-0.149775		-4.706638		-47.882502		-18.183846		-23.560218		40.853123		120.351660		-14.161654		-13.696073		-33.398688		-65.461513		-19.551819		-30.298394		63.024978		134.809951		-25.217618		-14.223867		-27.791852		
3.009924		2.717651		1.883644		96.020744		-0.033741		0.765967		0.509431		45.050923		-6.724596		-10.314620		-59.904528		2.054419		12.547546		27.835162		44.826127		-8.012458		-4.398183		-61.951839		10.182521		7.816532		31.901111		-30.041727		6.773854		1.595647		-16.823572		-0.112188		-4.698041		-46.470509		-18.505988		-23.258728		40.768206		119.963623		-14.580482		-13.790138		-33.487828		-63.864712		-19.788278		-29.901939		63.253406		134.768365		-25.925663		-14.421711		-27.981352		
3.012753		2.977059		1.876766		95.749510		-0.032882		0.754816		0.506527		45.811016		-6.274466		-10.354169		-61.989063		3.342058		11.241220		27.913387		45.663920		-8.473287		-4.349007		-64.132909		13.605105		7.519432		31.596156		-30.379691		6.828321		1.990297		-16.039081		-0.044990		-4.678931		-44.966915		-18.838775		-22.925101		40.644364		119.579514		-14.988857		-13.875797		-33.598148		-62.163680		-20.039925		-29.481586		63.435996		134.693207		-26.631540		-14.618950		-28.192107		
3.015581		3.269979		1.799006		95.411220		-0.031849		0.743798		0.503963		46.718169		-5.721575		-10.401972		-63.978634		4.150200		9.506308		27.993316		46.658763		-8.959847		-4.282289		-66.304821		16.574356		7.077310		31.172231		-30.701954		6.858971		2.480798		-15.197576		0.051458		-4.642475		-43.379144		-19.172979		-22.545583		40.486454		119.197723		-15.388124		-13.968908		-33.715339		-60.337186		-20.301120		-29.032362		63.584671		134.588520		-27.350392		-14.821466		-28.426465		
3.018409		3.551356		1.644400		95.034194		-0.030753		0.732921		0.501775		47.797567		-5.120811		-10.401677		-65.885133		4.669415		7.463471		28.071647		47.845464		-9.402667		-4.143480		-68.477320		19.003022		6.511647		30.653284		-31.002300		6.848701		3.009952		-14.308563		0.176383		-4.591083		-41.683758		-19.509829		-22.142161		40.300895		118.837282		-15.756481		-14.062867		-33.820829		-58.397266		-20.569432		-28.558497		63.699819		134.468257		-28.049322		-15.022248		-28.672313		
3.021237		3.782239		1.410748		94.652204		-0.029609		0.722183		0.499954		49.056865		-4.527580		-10.327765		-67.730300		5.025816		5.260623		28.146302		49.251361		-9.743486		-3.915359		-70.717493		20.858423		5.859662		30.062705		-31.269153		6.772868		3.532391		-13.388718		0.327501		-4.524877		-39.895889		-19.840247		-21.724698		40.099733		118.520730		-16.081880		-14.158975		-33.902779		-56.346543		-20.843239		-28.074441		63.797550		134.348109		-28.717493		-15.223032		-28.923969		
3.024066		3.804564		1.443743		94.435173		-0.028829		0.712210		0.498439		50.054947		-4.227471		-10.320468		-69.549046		5.140345		3.863986		28.188878		50.509450		-9.841150		-3.743733		-73.080876		21.903588		5.397211		29.710013		-31.811337		6.595753		3.836207		-12.968382		0.426211		-4.456422		-38.128616		-20.106999		-21.425991		40.151502		118.367255		-16.233579		-14.237453		-33.929922		-54.263362		-21.106459		-27.738775		64.076483		134.279444		-29.082352		-15.354936		-29.071583		
3.026894		4.023409		0.438664		93.990639		-0.027330		0.700034		0.497245		52.401245		-3.520137		-9.861039		-71.441138		4.630430		0.496613		28.305136		53.170130		-10.108826		-3.355830		-75.733796		22.726943		4.295401		28.451231		-31.261168		6.375150		4.357953		-11.823186		0.768103		-4.399568		-36.330973		-20.441440		-20.802847		39.853046		118.065659		-16.847715		-14.606913		-34.053239		-52.287627		-21.506093		-27.056278		64.049411		134.184363		-30.407710		-15.865091		-29.604147		
3.029722		3.999029		0.081747		93.747380		-0.026459		0.690105		0.496168		54.047886		-3.163038		-9.442267		-73.323997		5.109174		-1.392589		28.377532		54.986377		-9.968956		-2.809512		-78.105689		23.186765		3.726103		27.707352		-31.476477		6.112843		4.677905		-11.043118		0.910365		-4.280774		-34.236265		-20.706483		-20.423261		39.533462		117.870507		-16.980865		-14.610390		-34.021344		-49.775422		-21.760690		-26.587343		63.958327		134.068371		-30.834598		-15.966433		-29.758402		
3.032551		3.917663		-0.441196		93.645109		-0.025260		0.679617		0.495259		55.969746		-2.912524		-8.977147		-75.369036		5.119523		-3.194077		28.464382		57.199520		-9.892316		-2.503374		-80.713493		23.091059		2.975755		26.822317		-31.560308		5.765583		4.893043		-9.698243		1.145176		-4.218156		-32.190041		-20.864241		-19.991807		39.276877		117.809916		-17.101394		-14.695759		-33.954770		-47.384400		-22.262050		-26.120139		63.951622		134.076389		-31.376552		-16.228265		-29.929252		
